<svg width="31" height="20" viewBox="0 0 31 20" fill="none" xmlns="http://www.w3.org/2000/svg">
<path d="M2.75212 18.2759C0.961419 16.6762 2.60204e-06 14.8819 2.0935e-06 11.9734C1.19862e-06 6.85531 4.27161 2.26804 10.4834 -1.83298e-06L12.0359 2.01506C6.2379 4.65307 5.10437 8.07633 4.65235 10.2347C5.58595 9.82818 6.80814 9.68634 8.006 9.77992C11.1423 10.0241 13.6145 12.1898 13.6145 14.8819C13.6145 16.2393 12.9735 17.5411 11.8323 18.501C10.6912 19.4608 9.14346 20 7.52964 20C6.63717 19.9934 5.75517 19.8376 4.93497 19.5417C4.11477 19.2457 3.37276 18.8154 2.75212 18.2759ZM20.1376 18.2759C18.3469 16.6762 17.3855 14.8819 17.3855 11.9734C17.3855 6.8553 21.6571 2.26804 27.8689 -4.87274e-06L29.4214 2.01506C23.6234 4.65306 22.4898 8.07633 22.0378 10.2347C22.9714 9.82818 24.1936 9.68633 25.3915 9.77992C28.5278 10.0241 31 12.1898 31 14.8819C31 16.2393 30.3589 17.5411 29.2178 18.5009C28.0766 19.4608 26.5289 20 24.9151 20C24.0226 19.9934 23.1406 19.8376 22.3204 19.5416C21.5002 19.2457 20.7582 18.8154 20.1376 18.2759Z" fill="black" fill-opacity="0.7"/>
</svg>
